<svg width="128" height="128" viewBox="0 0 128 128" fill="none" xmlns="http://www.w3.org/2000/svg">
<rect width="128" height="128" fill="#F3492C"/>
<path d="M95.0089 75.1325C92.0094 78.071 88.0212 79.6884 83.7791 79.6884H40.104C36.9219 79.6884 33.9317 78.4752 31.6812 76.2715C29.4313 74.0679 28.4911 71.1385 28.4911 68.0219C28.4911 64.9058 29.4313 61.9764 31.6812 59.7722C33.9317 57.5691 36.9219 56.3554 40.104 56.3554C43.0634 56.3554 45.8581 57.4062 48.0447 59.3266V68.6558L74.8749 51.2462L74.8753 51.2478C77.4828 49.512 80.5574 48.5779 83.7791 48.5779C88.0212 48.5779 92.0094 50.1953 95.0089 53.1337C98.0092 56.0715 99.5755 59.9786 99.5755 64.1334C99.5755 68.2882 98.0092 72.1947 95.0089 75.1325ZM83.7791 40.7998C78.859 40.7998 74.2867 42.2613 70.4906 44.7652L70.489 44.7626L48.0447 59.3261V50.1969C45.6128 49.1566 42.928 48.5779 40.104 48.5779C29.14 48.5779 20.2666 57.2837 20.2666 68.0219C20.2666 78.7606 29.14 87.4665 40.104 87.4665H83.7791C96.936 87.4665 107.9 77.02 107.9 64.1334C107.9 51.2462 96.936 40.7998 83.7791 40.7998Z" fill="white"/>
</svg>
