<svg width="960" height="1440" viewBox="0 0 960 1440" fill="none" xmlns="http://www.w3.org/2000/svg">
<g clip-path="url(#clip0_11913_555)">
<rect width="960" height="1440" fill="url(#paint0_linear_11913_555)"/>
<rect width="960" height="1440" fill="url(#paint1_linear_11913_555)"/>
<path d="M-31.615 326.015C139.297 384.316 272.359 126.737 88.6928 -5.12528C-115.637 -151.823 -166.773 -259 16.997 -311.566" stroke="white" stroke-width="3.55556" stroke-dasharray="35.56 35.56"/>
<path d="M748.704 1566.66C310.075 1452.31 387.748 728.729 954.862 706.654C1585.78 682.095 1841.16 528.365 1528.99 164.019" stroke="white" stroke-width="3.55556" stroke-dasharray="35.56 35.56"/>
<path d="M758.528 485.331C765.891 485.331 771.861 479.683 771.861 472.714C771.861 465.746 765.891 460.098 758.528 460.098C751.164 460.098 745.194 465.746 745.194 472.714C745.194 479.683 751.164 485.331 758.528 485.331Z" stroke="white" stroke-width="8.88889" stroke-linecap="round" stroke-linejoin="round"/>
<path d="M772.899 997.591V1029.55" stroke="white" stroke-width="8.88889" stroke-linecap="round" stroke-linejoin="round"/>
<path d="M789.788 1013.57H756.01" stroke="white" stroke-width="8.88889" stroke-linecap="round" stroke-linejoin="round"/>
<path d="M512.823 397.388C512.823 402.494 508.442 406.64 503.045 406.64C497.648 406.64 493.267 402.494 493.267 397.388C493.267 392.281 497.648 388.135 503.045 388.135C508.442 388.135 512.823 392.281 512.823 397.388Z" fill="white"/>
<path d="M265.56 1064.42L257.589 1071.96L249.58 1064.42C249.274 1064.13 248.86 1063.97 248.428 1063.97C247.996 1063.97 247.581 1064.13 247.276 1064.42C246.97 1064.71 246.798 1065.1 246.798 1065.51C246.798 1065.92 246.97 1066.31 247.276 1066.6L255.247 1074.17L247.276 1081.71C246.966 1082 246.793 1082.4 246.793 1082.82C246.793 1083.23 246.966 1083.63 247.276 1083.92C247.427 1084.07 247.606 1084.18 247.804 1084.26C248.002 1084.34 248.214 1084.38 248.428 1084.38C248.642 1084.38 248.854 1084.34 249.052 1084.26C249.25 1084.18 249.429 1084.07 249.58 1083.92L257.589 1076.42L265.56 1084C265.879 1084.25 266.286 1084.38 266.702 1084.36C267.118 1084.35 267.513 1084.18 267.807 1083.91C268.101 1083.63 268.275 1083.25 268.292 1082.86C268.31 1082.47 268.171 1082.08 267.903 1081.78L259.743 1074.17L267.752 1066.6C267.904 1066.46 268.024 1066.29 268.106 1066.1C268.189 1065.91 268.231 1065.71 268.231 1065.51C268.231 1065.31 268.189 1065.11 268.106 1064.92C268.024 1064.73 267.904 1064.56 267.752 1064.42C267.448 1064.17 267.059 1064.03 266.656 1064.03C266.253 1064.03 265.864 1064.17 265.56 1064.42V1064.42Z" fill="white"/>
<path d="M265.562 1126.44L257.591 1133.97L249.582 1126.44C249.276 1126.15 248.862 1125.98 248.43 1125.98C247.998 1125.98 247.583 1126.15 247.278 1126.44C246.972 1126.72 246.8 1127.12 246.8 1127.52C246.8 1127.93 246.972 1128.33 247.278 1128.61L255.249 1136.19L247.278 1143.73C246.972 1144.01 246.8 1144.41 246.8 1144.81C246.8 1145.22 246.972 1145.62 247.278 1145.9C247.583 1146.19 247.998 1146.36 248.43 1146.36C248.862 1146.36 249.276 1146.19 249.582 1145.9L257.591 1138.37L265.562 1145.9C265.874 1146.2 266.295 1146.36 266.733 1146.36C267.172 1146.36 267.593 1146.2 267.905 1145.9C268.056 1145.76 268.177 1145.59 268.259 1145.4C268.342 1145.22 268.384 1145.02 268.384 1144.81C268.384 1144.61 268.342 1144.41 268.259 1144.22C268.177 1144.04 268.056 1143.87 267.905 1143.73L259.744 1136.22L267.753 1128.65C267.905 1128.51 268.026 1128.34 268.108 1128.15C268.191 1127.96 268.233 1127.76 268.233 1127.56C268.233 1127.36 268.191 1127.16 268.108 1126.97C268.026 1126.78 267.905 1126.61 267.753 1126.47C267.455 1126.21 267.068 1126.07 266.665 1126.06C266.262 1126.06 265.87 1126.19 265.562 1126.44Z" fill="white"/>
<path d="M213.279 1064.42L205.307 1071.96L197.298 1064.42C196.993 1064.13 196.578 1063.97 196.146 1063.97C195.714 1063.97 195.299 1064.13 194.994 1064.42C194.688 1064.71 194.516 1065.1 194.516 1065.51C194.516 1065.92 194.688 1066.31 194.994 1066.6L202.965 1074.17L194.994 1081.71C194.685 1082 194.511 1082.4 194.511 1082.82C194.511 1083.23 194.685 1083.63 194.994 1083.92C195.145 1084.07 195.324 1084.18 195.522 1084.26C195.72 1084.34 195.932 1084.38 196.146 1084.38C196.36 1084.38 196.572 1084.34 196.77 1084.26C196.968 1084.18 197.147 1084.07 197.298 1083.92L205.307 1076.42L213.279 1084C213.59 1084.29 214.011 1084.45 214.45 1084.45C214.889 1084.45 215.31 1084.29 215.621 1084C215.913 1083.69 216.075 1083.3 216.075 1082.89C216.075 1082.48 215.913 1082.08 215.621 1081.78L207.612 1074.24L215.621 1066.67C215.91 1066.37 216.071 1065.99 216.071 1065.58C216.071 1065.18 215.91 1064.79 215.621 1064.49C215.32 1064.19 214.904 1064.01 214.465 1064C214.026 1063.99 213.6 1064.14 213.279 1064.42V1064.42Z" fill="white"/>
<path d="M213.277 1126.44L205.306 1133.97L197.296 1126.44C196.991 1126.15 196.576 1125.98 196.144 1125.98C195.712 1125.98 195.298 1126.15 194.992 1126.44C194.686 1126.72 194.515 1127.12 194.515 1127.52C194.515 1127.93 194.686 1128.33 194.992 1128.61L202.963 1136.19L194.992 1143.72C194.686 1144.01 194.515 1144.41 194.515 1144.81C194.515 1145.22 194.686 1145.61 194.992 1145.9C195.298 1146.19 195.712 1146.36 196.144 1146.36C196.576 1146.36 196.991 1146.19 197.296 1145.9L205.306 1138.37L213.277 1145.9C213.588 1146.2 214.009 1146.36 214.448 1146.36C214.887 1146.36 215.308 1146.2 215.619 1145.9C215.909 1145.61 216.069 1145.22 216.069 1144.81C216.069 1144.41 215.909 1144.02 215.619 1143.72L207.61 1136.19L215.619 1128.61C215.909 1128.32 216.069 1127.93 216.069 1127.52C216.069 1127.12 215.909 1126.73 215.619 1126.44C215.308 1126.14 214.887 1125.98 214.448 1125.98C214.009 1125.98 213.588 1126.14 213.277 1126.44V1126.44Z" fill="white"/>
<path d="M160.99 1064.42L152.981 1071.96L145.01 1064.42C144.704 1064.13 144.289 1063.97 143.857 1063.97C143.425 1063.97 143.011 1064.13 142.705 1064.42C142.399 1064.71 142.228 1065.1 142.228 1065.51C142.228 1065.92 142.399 1066.31 142.705 1066.6L150.676 1074.17L142.705 1081.71C142.396 1082 142.222 1082.4 142.222 1082.82C142.222 1083.23 142.396 1083.63 142.705 1083.92C142.856 1084.07 143.036 1084.18 143.233 1084.26C143.431 1084.34 143.643 1084.38 143.857 1084.38C144.071 1084.38 144.283 1084.34 144.481 1084.26C144.679 1084.18 144.859 1084.07 145.01 1083.92L152.981 1076.42L160.99 1084C161.141 1084.14 161.32 1084.25 161.518 1084.33C161.716 1084.41 161.928 1084.45 162.142 1084.45C162.356 1084.45 162.568 1084.41 162.766 1084.33C162.964 1084.25 163.143 1084.14 163.294 1084C163.603 1083.7 163.777 1083.3 163.777 1082.89C163.777 1082.47 163.603 1082.08 163.294 1081.78L155.323 1074.24L163.294 1066.67C163.6 1066.38 163.772 1065.99 163.772 1065.58C163.772 1065.17 163.6 1064.78 163.294 1064.49C162.989 1064.2 162.574 1064.04 162.142 1064.04C161.71 1064.04 161.295 1064.2 160.99 1064.49L160.99 1064.42Z" fill="white"/>
<path d="M160.995 1126.44L152.986 1133.97L145.015 1126.44C144.709 1126.15 144.295 1125.98 143.863 1125.98C143.431 1125.98 143.016 1126.15 142.711 1126.44C142.405 1126.72 142.233 1127.12 142.233 1127.52C142.233 1127.93 142.405 1128.33 142.711 1128.61L150.682 1136.19L142.711 1143.73C142.405 1144.01 142.233 1144.41 142.233 1144.81C142.233 1145.22 142.405 1145.62 142.711 1145.9C143.016 1146.19 143.431 1146.36 143.863 1146.36C144.295 1146.36 144.709 1146.19 145.015 1145.9L152.986 1138.37L160.995 1145.9C161.301 1146.19 161.715 1146.36 162.148 1146.36C162.58 1146.36 162.994 1146.19 163.3 1145.9C163.605 1145.62 163.777 1145.22 163.777 1144.81C163.777 1144.41 163.605 1144.01 163.3 1143.73L155.329 1136.19L163.3 1128.61C163.605 1128.33 163.777 1127.93 163.777 1127.52C163.777 1127.12 163.605 1126.72 163.3 1126.44C162.994 1126.15 162.58 1125.98 162.148 1125.98C161.715 1125.98 161.301 1126.15 160.995 1126.44Z" fill="white"/>
<path d="M-2838.28 -618.645C-2784.73 -506.359 -2498.04 -256.157 -2107.23 -488.113C-1923.16 -597.369 -1727.22 -801.673 -1285.32 -769.176M180.608 -449.418C516.099 -450.666 1098.14 -353.459 742.358 45.3518C386.579 444.162 1090 365.327 1486.18 276.057" stroke="white" stroke-width="1.6111" stroke-dasharray="41.89 41.89"/>
<path d="M301.417 130.752C308.781 130.752 314.75 125.103 314.75 118.135C314.75 111.167 308.781 105.518 301.417 105.518C294.053 105.518 288.083 111.167 288.083 118.135C288.083 125.103 294.053 130.752 301.417 130.752Z" stroke="white" stroke-width="8.88889" stroke-linecap="round" stroke-linejoin="round"/>
</g>
<defs>
<linearGradient id="paint0_linear_11913_555" x1="480" y1="0" x2="480" y2="1771.2" gradientUnits="userSpaceOnUse">
<stop stop-color="#FFB670"/>
<stop offset="0.448503" stop-color="#FFC996"/>
<stop offset="0.721081" stop-color="#FFDBB8"/>
<stop offset="0.989526" stop-color="white"/>
</linearGradient>
<linearGradient id="paint1_linear_11913_555" x1="0" y1="1440" x2="1006.52" y2="1406.71" gradientUnits="userSpaceOnUse">
<stop stop-color="#FB5767"/>
<stop offset="0.511447" stop-color="#FB6D57"/>
<stop offset="1" stop-color="#FB7A55"/>
</linearGradient>
<clipPath id="clip0_11913_555">
<rect width="960" height="1440" fill="white"/>
</clipPath>
</defs>
</svg>
