<svg width="100" height="21" viewBox="0 0 100 21" fill="none" xmlns="http://www.w3.org/2000/svg">
<g clip-path="url(#clip0_11905_1337)">
<path d="M23.9892 12.6166C23.0265 13.6283 21.7464 14.1852 20.3849 14.1852H6.36698C5.34567 14.1852 4.38592 13.7675 3.66363 13.0087C2.9415 12.25 2.63973 11.2414 2.63973 10.1684C2.63973 9.09549 2.9415 8.08692 3.66363 7.32801C4.38592 6.56947 5.34567 6.15158 6.36698 6.15158C7.31682 6.15158 8.21382 6.5134 8.91561 7.17459V10.3866L17.527 4.39249L17.5271 4.39303C18.364 3.79541 19.3509 3.47377 20.3849 3.47377C21.7464 3.47377 23.0265 4.03066 23.9892 5.04234C24.9522 6.05385 25.4549 7.39906 25.4549 8.82956C25.4549 10.2601 24.9522 11.6051 23.9892 12.6166ZM20.3849 0.795776C18.8057 0.795776 17.3382 1.29897 16.1198 2.16107L16.1193 2.16016L8.91561 7.17441V4.03121C8.13507 3.67303 7.27337 3.47377 6.36698 3.47377C2.84798 3.47377 0 6.47121 0 10.1684C0 13.8657 2.84798 16.8632 6.36698 16.8632H20.3849C24.6077 16.8632 28.1267 13.2665 28.1267 8.82956C28.1267 4.3925 24.6077 0.795776 20.3849 0.795776Z" fill="#F3492C"/>
<path d="M40.1057 16.8631C38.6611 16.8631 37.3766 16.5213 36.2522 15.8379C35.1367 15.1662 34.2208 14.1831 33.6067 12.9977C32.9693 11.7869 32.6507 10.3867 32.6507 8.79696C32.6418 7.7155 32.8405 6.64299 33.2349 5.64372C33.6109 4.69176 34.159 3.82526 34.8492 3.09193C35.5393 2.36189 36.3633 1.786 37.2713 1.39879C38.225 0.991844 39.2459 0.786913 40.2753 0.79568C41.3358 0.794767 42.3838 1.03422 43.3479 1.4976C44.3316 1.96591 45.1207 2.59367 45.7147 3.38088L43.8917 5.51659C43.4219 4.98381 42.8687 4.42399 42.256 4.08609C41.6706 3.77321 40.9123 3.61285 40.2552 3.61851C39.4195 3.61851 38.5556 3.82655 37.8829 4.24225C37.207 4.66162 36.5429 5.38088 36.1693 6.10546C35.7719 6.85833 35.5732 7.83951 35.5736 8.81814C35.5736 9.82855 35.7684 10.8242 36.1578 11.5741C36.535 12.312 37.2211 13.0317 37.9246 13.4273C38.6397 13.8362 39.5743 14.0406 40.5093 14.0402C41.1842 14.0448 41.9616 13.7774 42.5739 13.4793C43.1614 13.1981 43.5847 12.9204 44.0363 12.436L45.5236 14.7238C45.1833 15.124 44.723 15.4883 44.1426 15.816C43.5341 16.1539 42.8885 16.412 42.2199 16.5846C41.5289 16.7688 40.8187 16.8625 40.1057 16.8631Z" fill="#F3492C"/>
<path d="M47.459 0.998718H50.3534V16.7212H47.459V0.998718Z" fill="#F3492C"/>
<path d="M57.8086 14.3176C58.6721 14.3176 59.3731 13.9982 59.9118 13.3591C60.4507 12.72 60.7197 11.8807 60.719 10.8411C60.719 9.8011 60.45 8.96165 59.9118 8.32275C59.3738 7.68366 58.6727 7.36439 57.8086 7.36475C56.9586 7.36475 56.2682 7.68402 55.737 8.32275C55.2058 8.96128 54.9403 9.80091 54.9403 10.8411C54.9403 11.8811 55.2058 12.7204 55.737 13.3591C56.2682 13.9978 56.9586 14.3173 57.8086 14.3176ZM57.0223 16.9696C56.121 16.9801 55.2384 16.7 54.494 16.1669C53.743 15.6322 53.1446 14.9039 52.6984 13.9823C52.2524 13.0606 52.0293 12.0133 52.0293 10.84C52.0293 9.63635 52.2524 8.57772 52.6984 7.66449C53.1446 6.75124 53.7537 6.03453 54.5258 5.51416C55.2975 4.99416 56.1722 4.73425 57.1499 4.73425C57.9431 4.73425 58.6374 4.9012 59.2328 5.23508C59.8001 5.54375 60.2884 5.99087 60.6566 6.53881V4.97991H63.5461L63.4941 16.7211H60.5888L60.6352 15.1622C60.2147 15.7023 59.6897 16.1427 59.0948 16.4545C58.4541 16.7998 57.7427 16.9767 57.0223 16.9696Z" fill="#F3492C"/>
<path d="M69.6516 16.9645C68.6175 16.9645 67.6975 16.7863 66.8917 16.4297C66.0859 16.0734 65.4343 15.5679 64.9368 14.9141L66.764 13.2876C67.1588 13.7558 67.6542 14.1185 68.2091 14.3461C68.7308 14.5581 69.2854 14.6675 69.8447 14.6688C70.2837 14.6688 70.6378 14.5649 70.907 14.357C71.1765 14.149 71.3111 13.8595 71.3107 13.488C71.3184 13.1768 71.1743 12.8827 70.9284 12.7081C70.6733 12.53 70.0643 12.3072 69.1013 12.0396C67.6709 11.6535 66.6581 11.1256 66.0631 10.4555C65.539 9.8617 65.2768 9.12636 65.2768 8.24945C65.2668 7.58407 65.4763 6.93548 65.87 6.41366C66.2665 5.88653 66.7905 5.4743 67.4421 5.17712C68.1132 4.87575 68.8366 4.72397 69.5667 4.73147C70.4176 4.72671 71.2615 4.89348 72.0523 5.22297C72.8313 5.55082 73.483 5.99649 74.0071 6.56014L72.4349 8.36526C72.0275 7.97129 71.5654 7.64452 71.0644 7.39575C70.5474 7.13657 70.0695 7.00653 69.6302 7.00581C68.6107 7.00581 68.1008 7.37731 68.1008 8.12014C68.1143 8.47685 68.2707 8.75923 68.5695 8.96726C68.8528 9.17548 69.4973 9.4206 70.5031 9.70242C71.8486 10.0738 72.7975 10.5642 73.35 11.1733C73.8319 11.6933 74.0726 12.3839 74.0723 13.2454C74.0799 13.9338 73.8749 14.6062 73.488 15.1622C73.0984 15.7268 72.5709 16.1689 71.9055 16.4884C71.24 16.8077 70.4886 16.9663 69.6516 16.9645Z" fill="#F3492C"/>
<path d="M81.2808 14.3335C82.1442 14.3335 82.8454 14.0102 83.3841 13.364C83.9229 12.7176 84.1919 11.882 84.1911 10.857C84.1911 9.84654 83.9223 9.01805 83.3841 8.37185C82.846 7.72545 82.145 7.40253 81.2808 7.4029C80.4163 7.4029 79.715 7.72216 79.177 8.36089C78.6388 8.99961 78.3699 9.83157 78.3699 10.857C78.3699 11.882 78.6388 12.7176 79.177 13.364C79.715 14.0102 80.4163 14.3335 81.2808 14.3335ZM75.5442 20.7945V4.99633H78.3485L78.3958 6.37934C78.7641 5.90408 79.2675 5.51048 79.9061 5.19852C80.5374 4.88764 81.2268 4.72764 81.9245 4.73038C82.9017 4.73038 83.7729 4.9903 84.5379 5.5103C85.3032 6.0303 85.9045 6.75011 86.3418 7.66993C86.7809 8.59139 86.9961 9.68216 86.9961 10.8559C86.9961 12.0297 86.7763 13.0767 86.3371 13.9981C85.8983 14.9194 85.2957 15.6432 84.5311 16.1709C83.7669 16.6984 82.895 16.9617 81.9182 16.9617C81.2514 16.961 80.5924 16.8121 79.9846 16.5249C79.3597 16.2354 78.8563 15.8678 78.4746 15.422V20.7906L75.5442 20.7945Z" fill="#F3492C"/>
<path d="M94.1099 14.3129C94.6513 14.3204 95.1833 14.1615 95.6397 13.8558C96.0919 13.5526 96.4556 13.1248 96.6911 12.6192C96.9391 12.0992 97.0629 11.5049 97.0629 10.8364C97.0629 10.1679 96.9391 9.57376 96.6911 9.05376C95.9499 7.54143 94.1803 6.94582 92.7384 7.72316C92.6776 7.75603 92.618 7.79093 92.5596 7.82801C92.1048 8.12645 91.7373 8.55055 91.4972 9.05376C91.2421 9.57376 91.1145 10.1679 91.1145 10.8364C91.1145 11.5049 91.2421 12.0992 91.4972 12.6192C91.7388 13.1241 92.1059 13.5513 92.5596 13.8558C93.0227 14.1637 93.5615 14.3226 94.1099 14.3129ZM94.1099 16.9649C92.9643 16.9649 91.9443 16.7009 91.0504 16.1733C90.1742 15.6629 89.4471 14.9118 88.9472 14.0006C88.4369 13.0797 88.1819 12.0251 88.1821 10.8364C88.1821 9.66253 88.4371 8.61503 88.9472 7.69431C89.4471 6.78325 90.1737 6.03239 91.0494 5.52151C91.9416 4.99458 92.9615 4.73102 94.1088 4.73065C95.2275 4.73065 96.2331 4.99421 97.1259 5.52151C98.0019 6.03239 98.729 6.78325 99.2293 7.69431C99.7392 8.61576 99.9942 9.66325 99.9942 10.8364C99.9942 12.0251 99.7392 13.0797 99.2293 14.0006C98.7292 14.9117 98.0022 15.6627 97.1259 16.1733C96.2341 16.7009 95.2288 16.9649 94.1099 16.9649Z" fill="#F3492C"/>
</g>
<defs>
<clipPath id="clip0_11905_1337">
<rect width="100" height="20" fill="white" transform="translate(0 0.79541)"/>
</clipPath>
</defs>
</svg>
