<svg width="157" height="147" viewBox="0 0 157 147" fill="none" xmlns="http://www.w3.org/2000/svg">
<rect x="0.5" y="87.2954" width="53" height="26" rx="13" fill="black"/>
<path fill-rule="evenodd" clip-rule="evenodd" d="M44.5 0.29541H2.5V42.2954H44.5V0.29541Z" fill="white" fill-opacity="0.5"/>
<path fill-rule="evenodd" clip-rule="evenodd" d="M42.8208 1.97699H4.18079V40.617H42.8208V1.97699ZM27.4146 14.2897C27.85 13.8543 28.5545 13.8548 28.9886 14.2893L28.9893 14.29C29.424 14.7243 29.424 15.4285 28.9893 15.8628L28.9886 15.8635C28.5545 16.298 27.85 16.2985 27.4146 15.8631C26.9803 15.4288 26.9803 14.724 27.4146 14.2897ZM30.3375 12.9413C29.1581 11.761 27.2458 11.7616 26.0662 12.9412C24.8871 14.1203 24.8871 16.0325 26.0662 17.2116C27.2459 18.3913 29.1584 18.3918 30.3377 17.2113C31.5173 16.0321 31.5172 14.1202 30.3375 12.9413ZM21.6905 19.8616C21.3096 19.3509 20.5447 19.3502 20.1628 19.8601L15.4385 26.169H32.1388L29.3977 22.706C29.0983 22.3279 28.5158 22.3569 28.2554 22.7628C27.2713 24.2975 25.0567 24.3757 23.9668 22.9142L21.6905 19.8616ZM18.6364 18.717C19.782 17.1872 22.0767 17.1895 23.2192 18.7216L25.4955 21.7741C25.789 22.1676 26.3852 22.1466 26.6501 21.7334C27.6171 20.2255 29.7811 20.1179 30.8929 21.5224L34.8572 26.5307C35.0842 26.8174 35.1272 27.2086 34.9679 27.5378C34.8087 27.8669 34.4752 28.076 34.1096 28.076H13.5332C13.1722 28.076 12.8421 27.8721 12.6806 27.5492C12.519 27.2264 12.5536 26.84 12.77 26.551L18.6364 18.717Z" fill="black"/>
<path d="M145.789 122.462C146.389 121.494 146.736 120.352 146.736 119.129C146.736 115.631 143.9 112.795 140.403 112.795H89.5C83.701 112.795 79 117.496 79 123.295V123.962V133.629V134.295C79 140.094 83.701 144.795 89.5 144.795H130.761C134.259 144.795 137.094 141.96 137.094 138.462C137.094 137.239 136.748 136.097 136.147 135.129H148.667C152.164 135.129 155 132.293 155 128.795C155 125.298 152.164 122.462 148.667 122.462H145.789Z" fill="black" stroke="white" stroke-width="3" stroke-linejoin="round"/>
<rect x="24.5" y="31.2954" width="97" height="97" rx="8" fill="white"/>
<rect x="24.5" y="31.2954" width="97" height="97" rx="8" stroke="#F3492C" stroke-width="4"/>
<path d="M69 64.7954V75.7954L58 75.7954C55.7909 75.7954 54 77.5863 54 79.7954C54 82.0045 55.7909 83.7954 58 83.7954H69V94.7954C69 97.0046 70.7909 98.7954 73 98.7954C75.2091 98.7954 77 97.0046 77 94.7954V83.7954H88C90.2091 83.7954 92 82.0045 92 79.7954C92 77.5863 90.2091 75.7954 88 75.7954L77 75.7954V64.7954C77 62.5863 75.2091 60.7954 73 60.7954C70.7909 60.7954 69 62.5863 69 64.7954Z" fill="black" stroke="black"/>
</svg>
