<svg width="140" height="172" viewBox="0 0 140 172" fill="none" xmlns="http://www.w3.org/2000/svg">
<rect x="1.5" y="28.2954" width="65" height="67" rx="9" fill="#FBBFB5"/>
<rect x="1.5" y="28.2954" width="65" height="67" rx="9" stroke="#F3492C" stroke-width="2"/>
<path d="M11.5 59.2954V67.2954C11.5 72.266 15.5294 76.2954 20.5 76.2954H43.217C45.9784 76.2954 48.217 74.0568 48.217 71.2954C48.217 70.1698 47.845 69.1311 47.2173 68.2954H54.5C57.2614 68.2954 59.5 66.0568 59.5 63.2954C59.5 60.534 57.2614 58.2954 54.5 58.2954H53.2928C53.9205 57.4598 54.2925 56.421 54.2925 55.2954C54.2925 52.534 52.0539 50.2954 49.2925 50.2954H20.5C15.5294 50.2954 11.5 54.3248 11.5 59.2954Z" fill="#F3492C" stroke="white" stroke-width="2" stroke-linejoin="round"/>
<rect x="72.5" y="14.2954" width="67" height="56" rx="10" fill="#F3492C"/>
<path d="M85.5 52.2954C85.5 50.0863 87.2909 48.2954 89.5 48.2954H125.179C126.284 48.2954 127.179 49.1908 127.179 50.2954V50.2954C127.179 51.4 126.284 52.2954 125.179 52.2954H85.5V52.2954Z" fill="white"/>
<path d="M85.5 52.2954H130.5C131.605 52.2954 132.5 53.1908 132.5 54.2954V54.2954C132.5 55.4 131.605 56.2954 130.5 56.2954H85.5V52.2954Z" fill="white"/>
<path d="M85.5 56.2954H118.972C120.076 56.2954 120.972 57.1908 120.972 58.2954V58.2954C120.972 59.4 120.076 60.2954 118.972 60.2954H89.5C87.2909 60.2954 85.5 58.5045 85.5 56.2954V56.2954Z" fill="white"/>
<path fill-rule="evenodd" clip-rule="evenodd" d="M110.804 25.5083C110.399 25.0777 109.742 25.0772 109.336 25.5086C108.931 25.9391 108.931 26.6374 109.336 27.0679C109.742 27.4993 110.399 27.4988 110.804 27.0682L110.805 27.0675C111.21 26.6372 111.21 25.9393 110.805 25.509L110.804 25.5083ZM108.078 24.1724C109.179 23.0034 110.962 23.0028 112.062 24.1724C113.162 25.3408 113.163 27.2354 112.062 28.4038C112.062 28.4038 112.062 28.4038 112.062 28.4038C110.962 29.5737 109.179 29.5732 108.078 28.4042C106.979 27.2357 106.979 25.3408 108.078 24.1724Z" fill="white"/>
<path fill-rule="evenodd" clip-rule="evenodd" d="M102.573 31.0287C102.929 30.5234 103.642 30.5242 103.997 31.0303L106.12 34.0552C107.137 35.5035 109.202 35.4261 110.12 33.9052C110.363 33.5029 110.906 33.4742 111.186 33.849L113.742 37.2806H98.1663L102.573 31.0287ZM105.423 29.9005C104.358 28.3823 102.217 28.38 101.149 29.896L95.6775 37.6591C95.4756 37.9455 95.4433 38.3285 95.594 38.6484C95.7447 38.9683 96.0526 39.1704 96.3893 39.1704H115.58C115.921 39.1704 116.232 38.9632 116.381 38.637C116.529 38.3109 116.489 37.9232 116.278 37.6391L112.58 32.6761C111.543 31.2842 109.525 31.3908 108.623 32.8851C108.376 33.2945 107.82 33.3154 107.546 32.9255L105.423 29.9005Z" fill="white"/>
<rect x="0.5" y="101.295" width="67" height="56" rx="10" fill="black"/>
<path d="M13.5 139.295C13.5 137.086 15.2909 135.295 17.5 135.295H53.1792C54.2838 135.295 55.1792 136.191 55.1792 137.295V137.295C55.1792 138.4 54.2838 139.295 53.1792 139.295H13.5V139.295Z" fill="white"/>
<path d="M13.5 139.295H58.5C59.6046 139.295 60.5 140.191 60.5 141.295V141.295C60.5 142.4 59.6046 143.295 58.5 143.295H13.5V139.295Z" fill="white"/>
<path d="M13.5 143.295H46.9717C48.0763 143.295 48.9717 144.191 48.9717 145.295V145.295C48.9717 146.4 48.0763 147.295 46.9717 147.295H17.5C15.2909 147.295 13.5 145.505 13.5 143.295V143.295Z" fill="white"/>
<path fill-rule="evenodd" clip-rule="evenodd" d="M38.8041 112.508C38.3992 112.078 37.7422 112.077 37.3361 112.509C36.931 112.939 36.931 113.637 37.3361 114.068C37.7422 114.499 38.3992 114.499 38.8041 114.068L38.8047 114.068C39.2102 113.637 39.2102 112.939 38.8047 112.509L38.8041 112.508ZM36.0784 111.172C37.1786 110.003 38.9621 110.003 40.0621 111.172C41.1624 112.341 41.1625 114.235 40.0624 115.404C40.0624 115.404 40.0624 115.404 40.0624 115.404C38.9624 116.574 37.1787 116.573 36.0784 115.404C34.9787 114.236 34.9787 112.341 36.0784 111.172Z" fill="white"/>
<path fill-rule="evenodd" clip-rule="evenodd" d="M30.5726 118.029C30.9287 117.523 31.6421 117.524 31.9973 118.03L34.1204 121.055C35.1369 122.504 37.2024 122.426 38.1203 120.905C38.3631 120.503 38.9064 120.474 39.1856 120.849L41.7422 124.281H26.1663L30.5726 118.029ZM33.4231 116.901C32.3575 115.382 30.2173 115.38 29.1489 116.896L23.6775 124.659C23.4756 124.946 23.4433 125.328 23.594 125.648C23.7447 125.968 24.0526 126.17 24.3893 126.17H43.5803C43.9213 126.17 44.2323 125.963 44.3808 125.637C44.5294 125.311 44.4892 124.923 44.2776 124.639L40.5802 119.676C39.5433 118.284 37.5249 118.391 36.623 119.885C36.3759 120.295 35.8199 120.315 35.5462 119.925L33.4231 116.901Z" fill="white"/>
<rect x="73.5" y="77.2954" width="65" height="65" rx="9" fill="#A9A9A9"/>
<rect x="73.5" y="77.2954" width="65" height="65" rx="9" stroke="black" stroke-width="2"/>
<path d="M85.5 106.962V113.629C85.5 117.863 88.9325 121.295 93.1667 121.295H115.619C118.013 121.295 119.953 119.355 119.953 116.962C119.953 116.103 119.703 115.302 119.272 114.629H126.167C128.56 114.629 130.5 112.689 130.5 110.295C130.5 107.902 128.56 105.962 126.167 105.962H124.951C125.382 105.289 125.632 104.488 125.632 103.629C125.632 101.236 123.692 99.2954 121.299 99.2954H93.1667C88.9325 99.2954 85.5 102.728 85.5 106.962Z" fill="black" stroke="white" stroke-width="2" stroke-linejoin="round"/>
<path d="M1.5 0.29541V12.2954C1.5 17.8183 5.97715 22.2954 11.5 22.2954H56.5C62.0228 22.2954 66.5 17.8183 66.5 12.2954V0.29541" stroke="url(#paint0_linear_11934_680)" stroke-width="2"/>
<path d="M72.5 171.295V158.295C72.5 152.773 76.9772 148.295 82.5 148.295H128.5C134.023 148.295 138.5 152.773 138.5 158.295V171.295" stroke="url(#paint1_linear_11934_680)" stroke-width="2"/>
<defs>
<linearGradient id="paint0_linear_11934_680" x1="34" y1="0.29541" x2="34" y2="22.2954" gradientUnits="userSpaceOnUse">
<stop stop-color="#F3492C" stop-opacity="0"/>
<stop offset="1" stop-color="#F3492C"/>
</linearGradient>
<linearGradient id="paint1_linear_11934_680" x1="105.5" y1="171.295" x2="105.5" y2="148.295" gradientUnits="userSpaceOnUse">
<stop stop-opacity="0"/>
<stop offset="1"/>
</linearGradient>
</defs>
</svg>
